<svg width="200" height="200" viewBox="0 0 200 200" fill="none" xmlns="http://www.w3.org/2000/svg">
<rect width="200" height="200" rx="26" fill="#040404"/>
<path d="M96.0312 62.75V131H81.9688L54.5469 85.25V131H40.4844V62.75H54.5469L82.0156 108.547V62.75H96.0312ZM129.219 131H114.359L114.453 120.031H129.219C132.906 120.031 136.016 119.203 138.547 117.547C141.078 115.859 142.984 113.406 144.266 110.188C145.578 106.969 146.234 103.078 146.234 98.5156V95.1875C146.234 91.6875 145.859 88.6094 145.109 85.9531C144.391 83.2969 143.312 81.0625 141.875 79.25C140.438 77.4375 138.672 76.0781 136.578 75.1719C134.484 74.2344 132.078 73.7656 129.359 73.7656H114.078V62.75H129.359C133.922 62.75 138.094 63.5312 141.875 65.0938C145.688 66.625 148.984 68.8281 151.766 71.7031C154.547 74.5781 156.688 78.0156 158.188 82.0156C159.719 85.9844 160.484 90.4062 160.484 95.2812V98.5156C160.484 103.359 159.719 107.781 158.188 111.781C156.688 115.781 154.547 119.219 151.766 122.094C149.016 124.938 145.719 127.141 141.875 128.703C138.062 130.234 133.844 131 129.219 131ZM122.328 62.75V131H108.266V62.75H122.328Z" fill="white"/>
</svg>
